<?xml version="1.0" encoding="UTF-8" standalone="no"?>
<!-- Generator: Adobe Illustrator 23.0.5, SVG Export Plug-In . SVG Version: 6.00 Build 0)  -->

<svg
   version="1.1"
   id="Capa_1"
   x="0px"
   y="0px"
   viewBox="0 0 344.82998 72.769993"
   xml:space="preserve"
   sodipodi:docname="AGRIVALL-logo-simbolo.svg"
   width="344.82999"
   height="72.769997"
   inkscape:version="1.4 (1:1.4+202410161351+e7c3feb100)"
   xmlns:inkscape="http://www.inkscape.org/namespaces/inkscape"
   xmlns:sodipodi="http://sodipodi.sourceforge.net/DTD/sodipodi-0.dtd"
   xmlns="http://www.w3.org/2000/svg"
   xmlns:svg="http://www.w3.org/2000/svg"><defs
   id="defs29" /><sodipodi:namedview
   id="namedview29"
   pagecolor="#ffffff"
   bordercolor="#000000"
   borderopacity="0.25"
   inkscape:showpageshadow="2"
   inkscape:pageopacity="0.0"
   inkscape:pagecheckerboard="0"
   inkscape:deskcolor="#d1d1d1"
   inkscape:zoom="1.0600053"
   inkscape:cx="173.11234"
   inkscape:cy="36.320572"
   inkscape:window-width="1600"
   inkscape:window-height="836"
   inkscape:window-x="0"
   inkscape:window-y="0"
   inkscape:window-maximized="1"
   inkscape:current-layer="Capa_1" />
<style
   type="text/css"
   id="style1">
	.st0{fill:#35190C;}
	.st1{fill:#A50A28;}
	.st2{fill:#0E5407;}
</style>
<g
   id="g29"
   transform="translate(-248.53,-261.25)">
	<g
   id="g24">
		<g
   id="g8">
			<path
   class="st0"
   d="m 348.08,261.93 c 1.21,0 2.02,0.61 2.44,1.82 l 11.74,35.91 c 0.26,0.72 0.25,1.3 -0.06,1.76 -0.31,0.46 -0.79,0.68 -1.47,0.68 h -8.62 c -1.32,0 -2.16,-0.62 -2.5,-1.87 l -1.25,-4.37 h -10.83 l -1.19,4.37 c -0.34,1.25 -1.17,1.87 -2.5,1.87 h -8.62 c -0.68,0 -1.17,-0.23 -1.47,-0.68 -0.3,-0.45 -0.32,-1.04 -0.06,-1.76 l 11.74,-35.91 c 0.42,-1.21 1.23,-1.82 2.44,-1.82 z m -1.75,23.83 -3.23,-11.69 h -0.17 l -3.46,11.69 z"
   id="path1" />
			<path
   class="st0"
   d="m 396.7,277.31 c 1.32,0 1.99,0.68 1.99,2.04 v 18.32 c 0,0.91 -0.47,1.62 -1.42,2.15 -3.29,1.97 -7.96,2.95 -14.01,2.95 -13.16,0 -19.74,-6.92 -19.74,-20.76 0,-13.84 6.83,-20.76 20.48,-20.76 5.26,0 9.44,1.04 12.54,3.12 0.61,0.42 0.98,0.8 1.13,1.16 0.15,0.36 0.11,0.88 -0.11,1.56 l -2.04,5.11 c -0.45,1.13 -1.42,1.44 -2.89,0.91 -2.19,-0.79 -4.39,-1.19 -6.58,-1.19 -3.63,0 -6.2,0.74 -7.71,2.21 -1.51,1.47 -2.27,4.1 -2.27,7.88 0,3.71 0.72,6.31 2.16,7.83 1.44,1.51 3.71,2.27 6.81,2.27 1.25,0 2.21,-0.11 2.89,-0.34 v -5.56 h -3.18 c -1.32,0 -1.98,-0.66 -1.98,-1.99 v -4.88 c 0,-1.36 0.66,-2.04 1.98,-2.04 h 11.95 z"
   id="path2" />
			<path
   class="st0"
   d="m 420.75,261.93 c 5.71,0 10,1.11 12.88,3.32 2.87,2.21 4.31,5.91 4.31,11.09 0,5.71 -2.42,9.7 -7.26,11.97 l 6.81,11.23 c 0.42,0.68 0.51,1.28 0.28,1.79 -0.23,0.51 -0.7,0.77 -1.42,0.77 h -8.28 c -1.25,0 -2.19,-0.55 -2.84,-1.65 l -5.84,-10.27 h -2.89 v 9.87 c 0,1.36 -0.68,2.04 -2.04,2.04 h -8.17 c -1.36,0 -2.04,-0.68 -2.04,-2.04 v -36.08 c 0,-1.36 0.68,-2.04 2.04,-2.04 z m -0.17,18.61 c 1.78,0 3.05,-0.34 3.83,-1.02 0.78,-0.68 1.16,-1.74 1.16,-3.18 0,-1.62 -0.38,-2.73 -1.13,-3.32 -0.76,-0.59 -2.04,-0.88 -3.86,-0.88 h -4.08 v 8.39 h 4.08 z"
   id="path3" />
			<path
   class="st0"
   d="m 442.92,263.98 c 0,-1.36 0.68,-2.04 2.04,-2.04 h 8.28 c 1.36,0 2.04,0.68 2.04,2.04 v 36.08 c 0,1.36 -0.68,2.04 -2.04,2.04 h -8.28 c -1.36,0 -2.04,-0.68 -2.04,-2.04 z"
   id="path4" />
			<path
   class="st0"
   d="m 473.16,302.1 c -1.21,0 -2.02,-0.61 -2.44,-1.82 l -11.4,-35.91 c -0.23,-0.72 -0.2,-1.3 0.08,-1.76 0.28,-0.45 0.77,-0.68 1.45,-0.68 h 8.74 c 1.36,0 2.19,0.62 2.5,1.87 l 4.14,16.45 1.87,9.08 h 0.23 l 1.87,-9.08 4.14,-16.45 c 0.3,-1.25 1.13,-1.87 2.5,-1.87 h 8.74 c 0.68,0 1.16,0.23 1.45,0.68 0.28,0.45 0.31,1.04 0.09,1.76 l -11.4,35.91 c -0.42,1.21 -1.23,1.82 -2.44,1.82 z"
   id="path5" />
			<path
   class="st0"
   d="m 516.84,261.93 c 1.21,0 2.02,0.61 2.44,1.82 l 11.74,35.91 c 0.26,0.72 0.25,1.3 -0.06,1.76 -0.31,0.46 -0.79,0.68 -1.47,0.68 h -8.62 c -1.32,0 -2.16,-0.62 -2.5,-1.87 l -1.25,-4.37 h -10.83 l -1.19,4.37 c -0.34,1.25 -1.17,1.87 -2.5,1.87 h -8.62 c -0.68,0 -1.17,-0.23 -1.47,-0.68 -0.3,-0.45 -0.32,-1.04 -0.06,-1.76 l 11.74,-35.91 c 0.42,-1.21 1.23,-1.82 2.44,-1.82 z m -1.76,23.83 -3.23,-11.69 h -0.17 l -3.46,11.69 z"
   id="path6" />
			<path
   class="st0"
   d="m 547.07,291.2 h 12.48 c 1.36,0 2.04,0.68 2.04,2.04 v 6.81 c 0,1.36 -0.68,2.04 -2.04,2.04 h -22.8 c -1.36,0 -2.04,-0.68 -2.04,-2.04 v -36.08 c 0,-1.36 0.68,-2.04 2.04,-2.04 h 8.28 c 1.36,0 2.04,0.68 2.04,2.04 z"
   id="path7" />
			<path
   class="st0"
   d="m 578.83,291.2 h 12.48 c 1.36,0 2.04,0.68 2.04,2.04 v 6.81 c 0,1.36 -0.68,2.04 -2.04,2.04 h -22.8 c -1.36,0 -2.04,-0.68 -2.04,-2.04 v -36.08 c 0,-1.36 0.68,-2.04 2.04,-2.04 h 8.28 c 1.36,0 2.04,0.68 2.04,2.04 z"
   id="path8" />
		</g>
		<g
   id="g23">
			<path
   class="st0"
   d="m 330.58,333.85 -7.25,-19.84 h 4.23 l 5.43,15.83 5.43,-15.83 h 4.26 l -7.28,19.84 z"
   id="path9" />
			<path
   class="st0"
   d="m 358.23,333.85 -1.28,-3.72 h -7.73 l -1.28,3.72 h -4.23 l 7.02,-19.89 h 4.75 l 6.99,19.89 z m -7.96,-6.79 h 5.66 l -2.84,-8.27 z"
   id="path10" />
			<path
   class="st0"
   d="m 365.25,314.01 h 4.01 v 16.8 h 6.37 v 3.04 h -10.37 v -19.84 z"
   id="path11" />
			<path
   class="st0"
   d="m 378.33,314.01 h 4.01 v 16.8 h 6.37 v 3.04 h -10.37 v -19.84 z"
   id="path12" />
			<path
   class="st0"
   d="m 406.66,314.01 c 3.18,0 5.76,0.91 7.72,2.73 1.96,1.82 2.94,4.22 2.94,7.22 0,2.99 -0.98,5.39 -2.94,7.19 -1.96,1.8 -4.53,2.7 -7.72,2.7 h -6.74 v -19.84 z m -2.73,16.8 h 2.73 c 2.08,0 3.7,-0.62 4.86,-1.85 1.16,-1.23 1.73,-2.9 1.73,-5 0,-2.1 -0.58,-3.77 -1.73,-5 -1.16,-1.23 -2.78,-1.85 -4.86,-1.85 h -2.73 z"
   id="path13" />
			<path
   class="st0"
   d="m 431.93,313.96 v 3.07 h -7.45 v 5.2 h 6.59 v 3.07 h -6.59 v 5.49 h 7.45 v 3.07 h -11.45 v -19.89 h 11.45 z"
   id="path14" />
			<path
   class="st0"
   d="m 446.36,331.15 c -1.95,-1.91 -2.93,-4.34 -2.93,-7.28 0,-2.94 0.98,-5.36 2.94,-7.28 1.96,-1.91 4.36,-2.87 7.2,-2.87 2.16,0 4.08,0.55 5.76,1.65 1.68,1.1 2.88,2.64 3.6,4.63 h -4.8 c -0.89,-1.74 -2.41,-2.61 -4.55,-2.61 -1.8,0 -3.26,0.59 -4.39,1.78 -1.13,1.18 -1.69,2.76 -1.69,4.72 0,1.96 0.56,3.53 1.69,4.72 1.13,1.18 2.51,1.78 4.15,1.78 1.64,0 2.93,-0.4 3.87,-1.21 0.94,-0.81 1.52,-1.89 1.75,-3.26 h -6.59 v -3.04 h 10.89 v 3.04 c -0.34,2.16 -1.4,4.05 -3.18,5.67 -1.78,1.62 -4.02,2.43 -6.72,2.43 -2.72,0 -5.04,-0.95 -7,-2.87 z"
   id="path15" />
			<path
   class="st0"
   d="m 479.42,333.85 -1.28,-3.72 h -7.73 l -1.28,3.72 h -4.23 l 7.02,-19.89 h 4.75 l 6.99,19.89 z m -7.96,-6.79 h 5.66 l -2.84,-8.27 z"
   id="path16" />
			<path
   class="st0"
   d="m 486.44,314.01 h 4.01 v 16.8 h 6.37 v 3.04 h -10.37 v -19.84 z"
   id="path17" />
			<path
   class="st0"
   d="m 499.51,314.01 h 4.01 v 16.8 h 6.37 v 3.04 h -10.37 v -19.84 z"
   id="path18" />
			<path
   class="st0"
   d="m 512.58,333.85 v -19.84 h 4.01 v 19.84 z"
   id="path19" />
			<path
   class="st0"
   d="m 533.84,313.96 h 4.01 v 19.89 h -4.01 l -8.98,-13.76 v 13.76 h -4.01 v -19.89 h 4.01 l 8.98,13.76 z"
   id="path20" />
			<path
   class="st0"
   d="m 553.57,313.96 v 3.07 h -7.45 v 5.2 h 6.59 v 3.07 h -6.59 v 5.49 h 7.45 v 3.07 h -11.45 v -19.89 h 11.45 z"
   id="path21" />
			<path
   class="st0"
   d="m 561.67,325.95 v 7.9 h -4.01 v -19.84 h 7.3 c 2.29,0 4.06,0.57 5.3,1.72 1.24,1.15 1.86,2.56 1.86,4.25 0,1.25 -0.38,2.42 -1.14,3.5 -0.76,1.08 -1.95,1.82 -3.58,2.22 l 5.06,8.16 h -4.75 l -4.75,-7.9 h -1.29 z m 0,-8.87 v 5.8 h 3.3 c 1,0 1.77,-0.26 2.3,-0.78 0.53,-0.52 0.8,-1.23 0.8,-2.12 0,-0.89 -0.27,-1.6 -0.8,-2.12 -0.53,-0.52 -1.3,-0.78 -2.3,-0.78 z"
   id="path22" />
			<path
   class="st0"
   d="m 589.12,333.85 -1.28,-3.72 h -7.73 l -1.28,3.72 h -4.23 l 7.02,-19.89 h 4.75 l 6.99,19.89 z m -7.96,-6.79 h 5.66 l -2.84,-8.27 z"
   id="path23" />
		</g>
	</g>
	<g
   id="g28">
		<path
   class="st1"
   d="m 313.73,275.49 c -2.74,0.02 -5.42,0.25 -8.06,0.66 -5.27,-3.5 -11.6,-5.54 -18.41,-5.54 -18.3,0 -33.19,14.77 -33.19,32.93 0,6.91 2.16,13.34 5.85,18.64 -0.37,2.53 -0.56,5.12 -0.56,7.75 l 0.01,0.22 h -0.1 c -6.7,-6.9 -10.74,-16.28 -10.74,-26.62 0,-21.22 17.35,-38.42 38.73,-38.42 10.24,0.01 19.55,3.95 26.47,10.38 z"
   id="path24" />
		<g
   id="g27">
			<path
   class="st2"
   d="m 313.19,275.49 c -2.72,0.02 -5.38,0.25 -7.99,0.66 -23.47,3.7 -42,22.46 -45.37,46.03 -0.37,2.53 -0.56,5.12 -0.56,7.75 v 0.22 h 5.31 v -0.22 c 0,-0.74 0.02,-1.49 0.05,-2.22 1.12,-25.1 21.16,-45.37 46.17,-46.84 0.96,-0.06 1.94,-0.09 2.92,-0.09 v -5.31 c -0.17,0.01 -0.35,0.01 -0.53,0.02 z"
   id="path25" />
			<path
   class="st2"
   d="m 271.82,329.94 v 0.22 h 5.31 v -0.22 c 0,-20.18 16.42,-36.6 36.61,-36.6 v -5.31 c -23.12,0 -41.92,18.79 -41.92,41.91 z"
   id="path26" />
			<path
   class="st2"
   d="m 284.36,329.94 v 0.22 h 5.32 c -0.01,-0.07 -0.01,-0.15 -0.01,-0.22 0,-13.26 10.79,-24.06 24.06,-24.06 v -5.31 c -16.19,0 -29.37,13.17 -29.37,29.37 z"
   id="path27" />
		</g>
	</g>
</g>
</svg>
