<?xml version="1.0" encoding="UTF-8" standalone="no"?>
<!-- Generator: Adobe Illustrator 23.0.5, SVG Export Plug-In . SVG Version: 6.00 Build 0)  -->

<svg
   version="1.1"
   id="Capa_1"
   x="0px"
   y="0px"
   viewBox="0 0 182.69999 182.24"
   xml:space="preserve"
   sodipodi:docname="AGRIVALL-simbolo.svg"
   width="182.7"
   height="182.24001"
   inkscape:version="1.4 (1:1.4+202410161351+e7c3feb100)"
   xmlns:inkscape="http://www.inkscape.org/namespaces/inkscape"
   xmlns:sodipodi="http://sodipodi.sourceforge.net/DTD/sodipodi-0.dtd"
   xmlns="http://www.w3.org/2000/svg"
   xmlns:svg="http://www.w3.org/2000/svg"><defs
   id="defs6" /><sodipodi:namedview
   id="namedview6"
   pagecolor="#ffffff"
   bordercolor="#000000"
   borderopacity="0.25"
   inkscape:showpageshadow="2"
   inkscape:pageopacity="0.0"
   inkscape:pagecheckerboard="0"
   inkscape:deskcolor="#d1d1d1"
   inkscape:zoom="1.0600053"
   inkscape:cx="91.98067"
   inkscape:cy="91.037279"
   inkscape:window-width="1600"
   inkscape:window-height="836"
   inkscape:window-x="0"
   inkscape:window-y="0"
   inkscape:window-maximized="1"
   inkscape:current-layer="Capa_1" />
<style
   type="text/css"
   id="style1">
	.st0{fill:#A50A28;}
	.st1{fill:#0E5407;}
</style>
<g
   id="g6"
   transform="translate(-329.6,-206.52)">
	<g
   id="g5">
		<path
   class="st0"
   d="m 512.29,235.58 c -7.68,0.05 -15.2,0.69 -22.58,1.86 -14.78,-9.82 -32.5,-15.52 -51.58,-15.52 -51.28,0 -93.01,41.38 -93.01,92.26 0,19.36 6.05,37.37 16.4,52.24 -1.05,7.09 -1.57,14.36 -1.57,21.72 l 0.03,0.62 h -0.28 c -18.78,-19.34 -30.1,-45.62 -30.1,-74.58 0,-59.46 48.6,-107.66 108.53,-107.66 28.68,0 54.76,11.03 74.16,29.06 z"
   id="path1" />
		<g
   id="g4">
			<path
   class="st1"
   d="m 510.78,235.58 c -7.61,0.05 -15.08,0.69 -22.39,1.86 -65.76,10.36 -117.68,62.93 -127.12,128.98 -1.04,7.09 -1.56,14.36 -1.56,21.72 v 0.62 h 14.88 v -0.62 c 0,-2.08 0.05,-4.17 0.15,-6.22 3.15,-70.34 59.28,-127.12 129.38,-131.24 2.7,-0.17 5.43,-0.25 8.18,-0.25 v -14.88 c -0.51,0 -1.03,0 -1.52,0.03 z"
   id="path2" />
			<path
   class="st1"
   d="m 394.84,388.14 v 0.62 h 14.88 v -0.62 c 0,-56.56 46.02,-102.55 102.58,-102.55 v -14.88 c -64.78,0 -117.46,52.66 -117.46,117.43 z"
   id="path3" />
			<path
   class="st1"
   d="m 429.99,388.14 v 0.62 h 14.9 c -0.02,-0.2 -0.02,-0.42 -0.02,-0.62 0,-37.17 30.22,-67.42 67.42,-67.42 v -14.88 c -45.38,0 -82.3,36.92 -82.3,82.3 z"
   id="path4" />
		</g>
	</g>
</g>
</svg>
