<?xml version="1.0" encoding="utf-8"?>
<!-- Generator: Adobe Illustrator 23.0.5, SVG Export Plug-In . SVG Version: 6.00 Build 0)  -->
<svg version="1.1" id="Capa_1" xmlns="http://www.w3.org/2000/svg" xmlns:xlink="http://www.w3.org/1999/xlink" x="0px" y="0px"
	 viewBox="0 0 841.89 595.28" style="enable-background:new 0 0 841.89 595.28;" xml:space="preserve">
<style type="text/css">
	.st0{fill:#FFFFFF;}
</style>
<g>
	<g>
		<g>
			<path class="st0" d="M332.34,237.2c1.21,0,2.02,0.61,2.44,1.82l11.74,35.91c0.26,0.72,0.25,1.3-0.06,1.76
				c-0.3,0.45-0.79,0.68-1.47,0.68h-8.62c-1.32,0-2.16-0.62-2.5-1.87l-1.25-4.37h-10.83l-1.19,4.37c-0.34,1.25-1.17,1.87-2.5,1.87
				h-8.62c-0.68,0-1.17-0.23-1.47-0.68c-0.3-0.45-0.32-1.04-0.06-1.76l11.74-35.91c0.42-1.21,1.23-1.82,2.44-1.82H332.34z
				 M330.58,261.03l-3.23-11.69h-0.17l-3.46,11.69H330.58z"/>
			<path class="st0" d="M380.95,252.57c1.32,0,1.99,0.68,1.99,2.04v18.32c0,0.91-0.47,1.62-1.42,2.15
				c-3.29,1.97-7.96,2.95-14.01,2.95c-13.16,0-19.74-6.92-19.74-20.76c0-13.84,6.83-20.76,20.48-20.76c5.26,0,9.44,1.04,12.54,3.12
				c0.61,0.42,0.98,0.8,1.13,1.16c0.15,0.36,0.11,0.88-0.11,1.56l-2.04,5.11c-0.45,1.13-1.42,1.44-2.89,0.91
				c-2.19-0.79-4.39-1.19-6.58-1.19c-3.63,0-6.2,0.74-7.72,2.21c-1.51,1.47-2.27,4.1-2.27,7.88c0,3.71,0.72,6.31,2.16,7.83
				c1.44,1.51,3.71,2.27,6.81,2.27c1.25,0,2.21-0.11,2.89-0.34v-5.56h-3.18c-1.32,0-1.98-0.66-1.98-1.99v-4.88
				c0-1.36,0.66-2.04,1.98-2.04H380.95z"/>
			<path class="st0" d="M405,237.2c5.71,0,10,1.11,12.88,3.32c2.87,2.21,4.31,5.91,4.31,11.09c0,5.71-2.42,9.7-7.26,11.97
				l6.81,11.23c0.42,0.68,0.51,1.28,0.28,1.79c-0.23,0.51-0.7,0.77-1.42,0.77h-8.28c-1.25,0-2.19-0.55-2.84-1.65l-5.84-10.27h-2.89
				v9.87c0,1.36-0.68,2.04-2.04,2.04h-8.17c-1.36,0-2.04-0.68-2.04-2.04v-36.08c0-1.36,0.68-2.04,2.04-2.04H405z M404.83,255.81
				c1.78,0,3.05-0.34,3.83-1.02c0.78-0.68,1.16-1.74,1.16-3.18c0-1.62-0.38-2.73-1.13-3.32c-0.76-0.59-2.04-0.88-3.86-0.88h-4.08
				v8.39H404.83z"/>
			<path class="st0" d="M427.18,239.24c0-1.36,0.68-2.04,2.04-2.04h8.28c1.36,0,2.04,0.68,2.04,2.04v36.08
				c0,1.36-0.68,2.04-2.04,2.04h-8.28c-1.36,0-2.04-0.68-2.04-2.04V239.24z"/>
			<path class="st0" d="M457.41,277.36c-1.21,0-2.02-0.61-2.44-1.82l-11.4-35.91c-0.23-0.72-0.2-1.3,0.08-1.76
				c0.28-0.45,0.77-0.68,1.45-0.68h8.74c1.36,0,2.19,0.62,2.5,1.87l4.14,16.45l1.87,9.08h0.23l1.87-9.08l4.14-16.45
				c0.3-1.25,1.13-1.87,2.5-1.87h8.74c0.68,0,1.16,0.23,1.45,0.68c0.28,0.45,0.31,1.04,0.09,1.76l-11.4,35.91
				c-0.42,1.21-1.23,1.82-2.44,1.82H457.41z"/>
			<path class="st0" d="M501.09,237.2c1.21,0,2.02,0.61,2.44,1.82l11.74,35.91c0.26,0.72,0.25,1.3-0.06,1.76s-0.79,0.68-1.47,0.68
				h-8.62c-1.32,0-2.16-0.62-2.5-1.87l-1.25-4.37h-10.83l-1.19,4.37c-0.34,1.25-1.17,1.87-2.5,1.87h-8.62
				c-0.68,0-1.17-0.23-1.47-0.68c-0.3-0.45-0.32-1.04-0.06-1.76l11.74-35.91c0.42-1.21,1.23-1.82,2.44-1.82H501.09z M499.33,261.03
				l-3.23-11.69h-0.17l-3.46,11.69H499.33z"/>
			<path class="st0" d="M531.32,266.47h12.48c1.36,0,2.04,0.68,2.04,2.04v6.81c0,1.36-0.68,2.04-2.04,2.04H521
				c-1.36,0-2.04-0.68-2.04-2.04v-36.08c0-1.36,0.68-2.04,2.04-2.04h8.28c1.36,0,2.04,0.68,2.04,2.04V266.47z"/>
			<path class="st0" d="M563.09,266.47h12.48c1.36,0,2.04,0.68,2.04,2.04v6.81c0,1.36-0.68,2.04-2.04,2.04h-22.8
				c-1.36,0-2.04-0.68-2.04-2.04v-36.08c0-1.36,0.68-2.04,2.04-2.04h8.28c1.36,0,2.04,0.68,2.04,2.04V266.47z"/>
		</g>
		<g>
			<path class="st0" d="M314.83,309.12l-7.25-19.84h4.23l5.43,15.83l5.43-15.83h4.26l-7.28,19.84H314.83z"/>
			<path class="st0" d="M342.49,309.12l-1.28-3.72h-7.73l-1.28,3.72h-4.23l7.02-19.89h4.75l6.99,19.89H342.49z M334.53,302.33h5.66
				l-2.84-8.27L334.53,302.33z"/>
			<path class="st0" d="M349.51,289.28h4.01v16.8h6.37v3.04h-10.37V289.28z"/>
			<path class="st0" d="M362.58,289.28h4.01v16.8h6.37v3.04h-10.37V289.28z"/>
			<path class="st0" d="M390.92,289.28c3.18,0,5.76,0.91,7.72,2.73c1.96,1.82,2.94,4.22,2.94,7.22s-0.98,5.39-2.94,7.19
				c-1.96,1.8-4.53,2.7-7.72,2.7h-6.74v-19.84H390.92z M388.19,306.08h2.73c2.08,0,3.7-0.62,4.86-1.85c1.16-1.23,1.73-2.9,1.73-5
				s-0.58-3.77-1.73-5c-1.16-1.23-2.78-1.85-4.86-1.85h-2.73V306.08z"/>
			<path class="st0" d="M416.18,289.22v3.07h-7.45v5.2h6.59v3.07h-6.59v5.49h7.45v3.07h-11.45v-19.89H416.18z"/>
			<path class="st0" d="M430.62,306.42c-1.95-1.91-2.93-4.34-2.93-7.28c0-2.94,0.98-5.36,2.94-7.28c1.96-1.91,4.36-2.87,7.2-2.87
				c2.16,0,4.08,0.55,5.76,1.65s2.88,2.64,3.6,4.63h-4.8c-0.89-1.74-2.41-2.61-4.55-2.61c-1.8,0-3.26,0.59-4.39,1.78
				c-1.13,1.18-1.69,2.76-1.69,4.72c0,1.96,0.56,3.53,1.69,4.72c1.13,1.18,2.51,1.78,4.15,1.78c1.64,0,2.93-0.4,3.87-1.21
				c0.94-0.81,1.52-1.89,1.75-3.26h-6.59v-3.04h10.89v3.04c-0.34,2.16-1.4,4.05-3.18,5.67s-4.02,2.43-6.72,2.43
				S432.57,308.33,430.62,306.42z"/>
			<path class="st0" d="M463.67,309.12l-1.28-3.72h-7.73l-1.28,3.72h-4.23l7.02-19.89h4.75l6.99,19.89H463.67z M455.72,302.33h5.66
				l-2.84-8.27L455.72,302.33z"/>
			<path class="st0" d="M470.69,289.28h4.01v16.8h6.37v3.04h-10.37V289.28z"/>
			<path class="st0" d="M483.77,289.28h4.01v16.8h6.37v3.04h-10.37V289.28z"/>
			<path class="st0" d="M496.84,309.12v-19.84h4.01v19.84H496.84z"/>
			<path class="st0" d="M518.1,289.22h4.01v19.89h-4.01l-8.98-13.76v13.76h-4.01v-19.89h4.01l8.98,13.76V289.22z"/>
			<path class="st0" d="M537.82,289.22v3.07h-7.45v5.2h6.59v3.07h-6.59v5.49h7.45v3.07h-11.45v-19.89H537.82z"/>
			<path class="st0" d="M545.92,301.22v7.9h-4.01v-19.84h7.3c2.29,0,4.06,0.57,5.3,1.72c1.24,1.15,1.86,2.56,1.86,4.25
				c0,1.25-0.38,2.42-1.14,3.5c-0.76,1.08-1.95,1.82-3.58,2.22l5.06,8.16h-4.75l-4.75-7.9H545.92z M545.92,292.35v5.8h3.3
				c1,0,1.77-0.26,2.3-0.78c0.53-0.52,0.8-1.23,0.8-2.12c0-0.89-0.27-1.6-0.8-2.12c-0.53-0.52-1.3-0.78-2.3-0.78H545.92z"/>
			<path class="st0" d="M573.38,309.12l-1.28-3.72h-7.73l-1.28,3.72h-4.23l7.02-19.89h4.75l6.99,19.89H573.38z M565.42,302.33h5.66
				l-2.84-8.27L565.42,302.33z"/>
		</g>
	</g>
	<g>
		<path class="st0" d="M297.99,250.76c-2.74,0.02-5.42,0.25-8.06,0.66c-5.27-3.5-11.6-5.54-18.41-5.54
			c-18.3,0-33.19,14.77-33.19,32.93c0,6.91,2.16,13.34,5.85,18.64c-0.37,2.53-0.56,5.12-0.56,7.75l0.01,0.22h-0.1
			c-6.7-6.9-10.74-16.28-10.74-26.62c0-21.22,17.35-38.42,38.73-38.42C281.76,240.39,291.06,244.32,297.99,250.76z"/>
		<g>
			<path class="st0" d="M297.45,250.76c-2.72,0.02-5.38,0.25-7.99,0.66c-23.47,3.7-42,22.46-45.37,46.03
				c-0.37,2.53-0.56,5.12-0.56,7.75v0.22h5.31v-0.22c0-0.74,0.02-1.49,0.05-2.22c1.12-25.1,21.16-45.37,46.17-46.84
				c0.96-0.06,1.94-0.09,2.92-0.09v-5.31C297.81,250.75,297.63,250.75,297.45,250.76z"/>
			<path class="st0" d="M256.07,305.2v0.22h5.31v-0.22c0-20.18,16.42-36.6,36.61-36.6v-5.31
				C274.88,263.3,256.07,282.09,256.07,305.2z"/>
			<path class="st0" d="M268.62,305.2v0.22h5.32c-0.01-0.07-0.01-0.15-0.01-0.22c0-13.26,10.79-24.06,24.06-24.06v-5.31
				C281.79,275.83,268.62,289.01,268.62,305.2z"/>
		</g>
	</g>
</g>
</svg>
